<?xml version="1.0" encoding="us-ascii" standalone="no"?><svg xmlns="http://www.w3.org/2000/svg" xmlns:xlink="http://www.w3.org/1999/xlink" contentStyleType="text/css" height="449px" preserveAspectRatio="none" style="width:943px;height:449px;background:#FFFFFF;" version="1.1" viewBox="0 0 943 449" width="943px" zoomAndPan="magnify"><defs><filter height="1" id="bgxwohsut10ur0" width="1" x="0" y="0"><feFlood flood-color="#90EE90" result="flood"/><feComposite in="SourceGraphic" in2="flood" operator="over"/></filter><filter height="1" id="bgxwohsut10ur1" width="1" x="0" y="0"><feFlood flood-color="#00FFFF" result="flood"/><feComposite in="SourceGraphic" in2="flood" operator="over"/></filter><filter height="1" id="bgxwohsut10ur2" width="1" x="0" y="0"><feFlood flood-color="#FFA500" result="flood"/><feComposite in="SourceGraphic" in2="flood" operator="over"/></filter></defs><g><text fill="#000000" font-family="sans-serif" font-size="14" font-weight="bold" lengthAdjust="spacing" textLength="517" x="206" y="25.1074">Keyple - keyple-card-calypso-crypto-legacysam-java-lib - 1.0.+ (2023-06-29)</text><rect fill="#DDDDDD" height="103.1055" id="_legend" rx="7.5" ry="7.5" style="stroke:#000000;stroke-width:1.0;" width="322" x="303.5" y="51.6211"/><text fill="#000000" font-family="sans-serif" font-size="14" lengthAdjust="spacing" text-decoration="underline" textLength="88" x="308.5" y="71.7285">Colors legend</text><text fill="#000000" font-family="sans-serif" font-size="14" lengthAdjust="spacing" textLength="4" x="400.5" y="71.7285">:</text><ellipse cx="314" cy="86.3633" fill="#000000" rx="2.5" ry="2.5" style="stroke:#000000;stroke-width:0.0;"/><text fill="#000000" font-family="sans-serif" font-size="14" lengthAdjust="spacing" text-decoration="underline" textLength="148" x="320.5" y="90.3496">External API references</text><text fill="#000000" font-family="sans-serif" font-size="14" lengthAdjust="spacing" textLength="4" x="472.5" y="90.3496">:</text><rect fill="#000000" height="3.5" style="stroke:#000000;stroke-width:0.0;" width="3.5" x="317.5" y="102.4844"/><text fill="#000000" filter="url(#bgxwohsut10ur0)" font-family="sans-serif" font-size="14" font-weight="bold" lengthAdjust="spacing" textLength="296" x="324.5" y="108.9707">keypop-calypso-crypto-legacysam-java-api</text><rect fill="#000000" height="3.5" style="stroke:#000000;stroke-width:0.0;" width="3.5" x="317.5" y="121.1055"/><text fill="#000000" filter="url(#bgxwohsut10ur1)" font-family="sans-serif" font-size="14" font-weight="bold" lengthAdjust="spacing" textLength="170" x="324.5" y="127.5918">keyple-common-java-api</text><rect fill="#000000" height="3.5" style="stroke:#000000;stroke-width:0.0;" width="3.5" x="317.5" y="139.7266"/><text fill="#000000" filter="url(#bgxwohsut10ur2)" font-family="sans-serif" font-size="14" font-weight="bold" lengthAdjust="spacing" textLength="229" x="324.5" y="146.2129">keyple-service-resource-java-lib</text><!--cluster legacysam--><g id="cluster_legacysam"><path d="M8.5,173.7402 L355.5,173.7402 A3.75,3.75 0 0 1 358,176.2402 L365,198.3613 L933.5,198.3613 A2.5,2.5 0 0 1 936,200.8613 L936,440.2402 A2.5,2.5 0 0 1 933.5,442.7402 L8.5,442.7402 A2.5,2.5 0 0 1 6,440.2402 L6,176.2402 A2.5,2.5 0 0 1 8.5,173.7402 " fill="#F8F9F9" style="stroke:#000000;stroke-width:1.5;"/><line style="stroke:#000000;stroke-width:1.5;" x1="6" x2="365" y1="198.3613" y2="198.3613"/><text fill="#000000" font-family="sans-serif" font-size="14" font-weight="bold" lengthAdjust="spacing" textLength="346" x="10" y="190.8477">org.eclipse.keyple.card.calypso.crypto.legacysam</text></g><!--class LegacySamCardExtensionService--><g id="elem_LegacySamCardExtensionService"><rect codeLine="62" fill="#FEFECE" height="216.2109" id="LegacySamCardExtensionService" rx="2.5" ry="2.5" style="stroke:#D4AC0D;stroke-width:2.0;" width="898" x="22" y="210.7402"/><ellipse cx="337.75" cy="234.3613" fill="#ADD1B2" rx="11" ry="11" style="stroke:#181818;stroke-width:1.0;"/><path d="M340.5156,230.2363 Q340.6719,230.0176 340.8594,229.9082 Q341.0469,229.7988 341.2656,229.7988 Q341.6406,229.7988 341.875,230.0645 Q342.1094,230.3145 342.1094,230.9238 L342.1094,232.377 Q342.1094,232.9863 341.875,233.252 Q341.6406,233.5176 341.2656,233.5176 Q340.9219,233.5176 340.7188,233.3145 Q340.5156,233.127 340.4063,232.6113 Q340.3594,232.252 340.1719,232.0645 Q339.8438,231.6895 339.2344,231.4707 Q338.625,231.252 338,231.252 Q337.2344,231.252 336.5938,231.5801 Q335.9688,231.9082 335.4688,232.6582 Q334.9844,233.4082 334.9844,234.4395 L334.9844,235.5332 Q334.9844,236.7676 335.875,237.5957 Q336.7656,238.4082 338.3594,238.4082 Q339.2969,238.4082 339.9531,238.1582 Q340.3438,238.002 340.7656,237.5645 Q341.0313,237.2988 341.1719,237.2207 Q341.3281,237.1426 341.5313,237.1426 Q341.8594,237.1426 342.1094,237.4082 Q342.375,237.6582 342.375,238.002 Q342.375,238.3457 342.0313,238.752 Q341.5313,239.3301 340.7344,239.6582 Q339.6563,240.1113 338.3594,240.1113 Q336.8438,240.1113 335.6406,239.4863 Q334.6563,238.9863 333.9688,237.9238 Q333.2813,236.8457 333.2813,235.5645 L333.2813,234.4082 Q333.2813,233.0801 333.8906,231.9395 Q334.5156,230.7832 335.6094,230.1738 Q336.7031,229.5488 337.9375,229.5488 Q338.6719,229.5488 339.3125,229.7207 Q339.9688,229.877 340.5156,230.2363 Z " fill="#000000"/><ellipse cx="363.25" cy="233.8613" fill="#84BE84" rx="3" ry="3" style="stroke:#038048;stroke-width:1.0;"/><text fill="#000000" font-family="sans-serif" font-size="14" lengthAdjust="spacing" textLength="16" x="409.25" y="230.8477">&lt;&lt;</text><text fill="#000000" filter="url(#bgxwohsut10ur1)" font-family="sans-serif" font-size="14" lengthAdjust="spacing" textLength="135" x="425.25" y="230.8477">KeypleCardExtension</text><text fill="#000000" font-family="sans-serif" font-size="14" lengthAdjust="spacing" textLength="16" x="560.25" y="230.8477">&gt;&gt;</text><text fill="#000000" font-family="sans-serif" font-size="14" font-weight="bold" lengthAdjust="spacing" textLength="30" x="369.25" y="249.4688">final</text><text fill="#000000" font-family="sans-serif" font-size="14" lengthAdjust="spacing" textLength="213" x="403.25" y="249.4688">LegacySamCardExtensionService</text><line style="stroke:#D4AC0D;stroke-width:2.0;" x1="23" x2="919" y1="257.9824" y2="257.9824"/><line style="stroke:#D4AC0D;stroke-width:1.0;" x1="23" x2="919" y1="265.9824" y2="265.9824"/><ellipse cx="33" cy="280.793" fill="#84BE84" rx="3" ry="3" style="stroke:#038048;stroke-width:1.0;"/><text fill="#000000" font-family="sans-serif" font-size="14" lengthAdjust="spacing" text-decoration="underline" textLength="304" x="42" y="285.0898">LegacySamCardExtensionService getInstance ()</text><text fill="#000000" font-family="sans-serif" font-size="14" lengthAdjust="spacing" textLength="4" x="42" y="303.7109">&#160;</text><ellipse cx="33" cy="318.0352" fill="#84BE84" rx="3" ry="3" style="stroke:#038048;stroke-width:1.0;"/><text fill="#000000" filter="url(#bgxwohsut10ur0)" font-family="sans-serif" font-size="14" lengthAdjust="spacing" textLength="142" x="42" y="322.332">LegacySamApiFactory</text><text fill="#000000" font-family="sans-serif" font-size="14" lengthAdjust="spacing" textLength="176" x="188" y="322.332">getLegacySamApiFactory ()</text><ellipse cx="33" cy="336.6563" fill="#84BE84" rx="3" ry="3" style="stroke:#038048;stroke-width:1.0;"/><text fill="#000000" filter="url(#bgxwohsut10ur2)" font-family="sans-serif" font-size="14" lengthAdjust="spacing" textLength="193" x="42" y="340.9531">CardResourceProfileExtension</text><text fill="#000000" font-family="sans-serif" font-size="14" lengthAdjust="spacing" textLength="285" x="239" y="340.9531">createLegacySamResourceProfileExtension (</text><text fill="#000000" filter="url(#bgxwohsut10ur0)" font-family="sans-serif" font-size="14" lengthAdjust="spacing" textLength="193" x="524" y="340.9531">LegacySamSelectionExtension</text><text fill="#000000" font-family="sans-serif" font-size="14" lengthAdjust="spacing" textLength="193" x="721" y="340.9531">legacySamSelectionExtension)</text><ellipse cx="33" cy="377.8984" fill="#84BE84" rx="3" ry="3" style="stroke:#038048;stroke-width:1.0;"/><text fill="#000000" font-family="sans-serif" font-size="14" lengthAdjust="spacing" textLength="199" x="42" y="382.1953">String getCommonApiVersion ()</text><ellipse cx="33" cy="396.5195" fill="#84BE84" rx="3" ry="3" style="stroke:#038048;stroke-width:1.0;"/><text fill="#000000" font-family="sans-serif" font-size="14" lengthAdjust="spacing" textLength="190" x="42" y="400.8164">String getReaderApiVersion ()</text><ellipse cx="33" cy="415.1406" fill="#84BE84" rx="3" ry="3" style="stroke:#038048;stroke-width:1.0;"/><text fill="#000000" font-family="sans-serif" font-size="14" lengthAdjust="spacing" textLength="174" x="42" y="419.4375">String getCardApiVersion ()</text><line style="stroke:#D4AC0D;stroke-width:1.0;" x1="23" x2="395.5" y1="357.7773" y2="357.7773"/><text fill="#000000" font-family="sans-serif" font-size="14" font-weight="bold" lengthAdjust="spacing" textLength="151" x="395.5" y="363.0742">KeypleCardExtension</text><line style="stroke:#D4AC0D;stroke-width:1.0;" x1="546.5" x2="919" y1="357.7773" y2="357.7773"/></g><!--SRC=[ZLPjR-8u4FwUNp7N_R0jLO3oKah58eN4sQssrwqAUrAbav2R3933n95joaLL__lPIO10AHmVa3DvvdbcnkDnLAGOMg1_Fp5D688DysnX1rI4-e-bYUHs8D94SPlXb0Qff0lx7_fARHQzQFnLjLwzXFD6lT6qwzTsetjXOHo2ofYjh_3j6un-a3-9NkX7boyPBeM4ICebIWWHRc6cL29lQxMPMh20Cou27gAi1dnHcuYQeYyCwT8ETL2vzm6JNife6ji9ewfc_H7Y98eHtF7t9_9y1VwDt_MxU-O6-0s_wRVsp4qWRT8X- -WMU1rlu7bxvZQuZkjxZJtpDGmyj-bsIkRxkuUVq6nrRxn1oVfxIA3HSSXrtTJAjc6eKgRhecPKGSZZhmfMNCnX5QaPnBY2LnGouZ7m2UXSOxLSCErcoNaK9rJG1KY50hbA4tG6N8GeN5DH-E9qFTVp3mBlTe23bjCXxOD0TvVHywu6ZOD0iWCaWsvJIsVvaGVFn5loSXcLCiUFPb4mZr5AADCwGl1L-PLcUaR6-Ee32mtcKy6NSLWe-yGdBZaiLa2ybkFMFKtvXE49lbvFODZlQrgFUCGzGhj1aavBzu4rYtIZhutRCcdLnwNGn-saS9B1CkqMSVtEKUqj-8QqMewtbj_OTo9uOSlJ-WQKvJFms_xWgFeQMlHweLrOTvI_2yJufFJKe3BjhjyX_b7j3ROuKuNusholdluVyJJJTdGVaLFQ6RJXDacxB9tkAkSpqVtrC28FesmgwhcQZKoUPADuFCuO9UJsyHXkCtj5lo7_QgAOCd0Uxq3WHBF60SejfWAz5vt4BOkcCvNdNQcOcSwJ4-ES9b6bqgiPx_ukLv3IDOkv6VXYmUDJFbpGU8fRBudYDGhG5YZvKkZ5-WhP-fiQv2bRLg8jT8fmniMqYW6B4edLdAfghgPgaKirpwMwoUKCQ5Qu_0dUigWk0xDRSDRhbHBARpnNavcYncQg5f7q-t_7bOgUq9JfVEupiY5Tx427UJwPt5544OBvwRctNbw-IKLL5BoVS9wYkeirL6yod5zOM_yFkxpXSPB8fu7Y8YtICIG7tXg-FRfYqqmaJyK-FGe-YHZkbmW2WLJXXlOpE9n_7kWG6GPAWpwGiyyX5wLgwcuxi8bwoyg57YeHnLDJ0pThN5s0luexj5o0BUm9gJxK9s56yoFetNet1zoHaWSHDP7Bui3VEy-_VkVdFNiUZfxlyu-YTQzlk_RB-iFbxTtw3m00]--></g></svg>