<?xml version="1.0" encoding="us-ascii" standalone="no"?><svg xmlns="http://www.w3.org/2000/svg" xmlns:xlink="http://www.w3.org/1999/xlink" contentStyleType="text/css" height="632px" preserveAspectRatio="none" style="width:1111px;height:632px;background:#FFFFFF;" version="1.1" viewBox="0 0 1111 632" width="1111px" zoomAndPan="magnify"><defs><filter height="1" id="bc2gnkgu6319i0" width="1" x="0" y="0"><feFlood flood-color="#90EE90" result="flood"/><feComposite in="SourceGraphic" in2="flood" operator="over"/></filter><filter height="1" id="bc2gnkgu6319i1" width="1" x="0" y="0"><feFlood flood-color="#00FFFF" result="flood"/><feComposite in="SourceGraphic" in2="flood" operator="over"/></filter><filter height="1" id="bc2gnkgu6319i2" width="1" x="0" y="0"><feFlood flood-color="#FFA500" result="flood"/><feComposite in="SourceGraphic" in2="flood" operator="over"/></filter></defs><g><text fill="#000000" font-family="sans-serif" font-size="14" font-weight="bold" lengthAdjust="spacing" textLength="517" x="290" y="25.1074">Keyple - keyple-card-calypso-crypto-legacysam-java-lib - 1.0.+ (2023-06-29)</text><rect fill="#DDDDDD" height="103.1055" id="_legend" rx="7.5" ry="7.5" style="stroke:#000000;stroke-width:1.0;" width="322" x="387.5" y="51.6211"/><text fill="#000000" font-family="sans-serif" font-size="14" lengthAdjust="spacing" text-decoration="underline" textLength="88" x="392.5" y="71.7285">Colors legend</text><text fill="#000000" font-family="sans-serif" font-size="14" lengthAdjust="spacing" textLength="4" x="484.5" y="71.7285">:</text><ellipse cx="398" cy="86.3633" fill="#000000" rx="2.5" ry="2.5" style="stroke:#000000;stroke-width:0.0;"/><text fill="#000000" font-family="sans-serif" font-size="14" lengthAdjust="spacing" text-decoration="underline" textLength="148" x="404.5" y="90.3496">External API references</text><text fill="#000000" font-family="sans-serif" font-size="14" lengthAdjust="spacing" textLength="4" x="556.5" y="90.3496">:</text><rect fill="#000000" height="3.5" style="stroke:#000000;stroke-width:0.0;" width="3.5" x="401.5" y="102.4844"/><text fill="#000000" filter="url(#bc2gnkgu6319i0)" font-family="sans-serif" font-size="14" font-weight="bold" lengthAdjust="spacing" textLength="296" x="408.5" y="108.9707">keypop-calypso-crypto-legacysam-java-api</text><rect fill="#000000" height="3.5" style="stroke:#000000;stroke-width:0.0;" width="3.5" x="401.5" y="121.1055"/><text fill="#000000" filter="url(#bc2gnkgu6319i1)" font-family="sans-serif" font-size="14" font-weight="bold" lengthAdjust="spacing" textLength="170" x="408.5" y="127.5918">keyple-common-java-api</text><rect fill="#000000" height="3.5" style="stroke:#000000;stroke-width:0.0;" width="3.5" x="401.5" y="139.7266"/><text fill="#000000" filter="url(#bc2gnkgu6319i2)" font-family="sans-serif" font-size="14" font-weight="bold" lengthAdjust="spacing" textLength="229" x="408.5" y="146.2129">keyple-service-resource-java-lib</text><!--cluster legacysam--><g id="cluster_legacysam"><path d="M8.5,173.7402 L355.5,173.7402 A3.75,3.75 0 0 1 358,176.2402 L365,198.3613 L1101.5,198.3613 A2.5,2.5 0 0 1 1104,200.8613 L1104,623.2402 A2.5,2.5 0 0 1 1101.5,625.7402 L8.5,625.7402 A2.5,2.5 0 0 1 6,623.2402 L6,176.2402 A2.5,2.5 0 0 1 8.5,173.7402 " fill="#F8F9F9" style="stroke:#000000;stroke-width:1.5;"/><line style="stroke:#000000;stroke-width:1.5;" x1="6" x2="365" y1="198.3613" y2="198.3613"/><text fill="#000000" font-family="sans-serif" font-size="14" font-weight="bold" lengthAdjust="spacing" textLength="346" x="10" y="190.8477">org.eclipse.keyple.card.calypso.crypto.legacysam</text></g><!--class LegacySamCardExtensionService--><g id="elem_LegacySamCardExtensionService"><rect codeLine="62" fill="#E9F7EF" height="272.0742" id="LegacySamCardExtensionService" rx="2.5" ry="2.5" style="stroke:#27AE60;stroke-width:2.0;" width="1066" x="22" y="210.7402"/><ellipse cx="421.75" cy="234.3613" fill="#ADD1B2" rx="11" ry="11" style="stroke:#181818;stroke-width:1.0;"/><path d="M424.5156,230.2363 Q424.6719,230.0176 424.8594,229.9082 Q425.0469,229.7988 425.2656,229.7988 Q425.6406,229.7988 425.875,230.0645 Q426.1094,230.3145 426.1094,230.9238 L426.1094,232.377 Q426.1094,232.9863 425.875,233.252 Q425.6406,233.5176 425.2656,233.5176 Q424.9219,233.5176 424.7188,233.3145 Q424.5156,233.127 424.4063,232.6113 Q424.3594,232.252 424.1719,232.0645 Q423.8438,231.6895 423.2344,231.4707 Q422.625,231.252 422,231.252 Q421.2344,231.252 420.5938,231.5801 Q419.9688,231.9082 419.4688,232.6582 Q418.9844,233.4082 418.9844,234.4395 L418.9844,235.5332 Q418.9844,236.7676 419.875,237.5957 Q420.7656,238.4082 422.3594,238.4082 Q423.2969,238.4082 423.9531,238.1582 Q424.3438,238.002 424.7656,237.5645 Q425.0313,237.2988 425.1719,237.2207 Q425.3281,237.1426 425.5313,237.1426 Q425.8594,237.1426 426.1094,237.4082 Q426.375,237.6582 426.375,238.002 Q426.375,238.3457 426.0313,238.752 Q425.5313,239.3301 424.7344,239.6582 Q423.6563,240.1113 422.3594,240.1113 Q420.8438,240.1113 419.6406,239.4863 Q418.6563,238.9863 417.9688,237.9238 Q417.2813,236.8457 417.2813,235.5645 L417.2813,234.4082 Q417.2813,233.0801 417.8906,231.9395 Q418.5156,230.7832 419.6094,230.1738 Q420.7031,229.5488 421.9375,229.5488 Q422.6719,229.5488 423.3125,229.7207 Q423.9688,229.877 424.5156,230.2363 Z " fill="#000000"/><ellipse cx="447.25" cy="233.8613" fill="#84BE84" rx="3" ry="3" style="stroke:#038048;stroke-width:1.0;"/><text fill="#000000" font-family="sans-serif" font-size="14" lengthAdjust="spacing" textLength="16" x="493.25" y="230.8477">&lt;&lt;</text><text fill="#000000" filter="url(#bc2gnkgu6319i1)" font-family="sans-serif" font-size="14" lengthAdjust="spacing" textLength="135" x="509.25" y="230.8477">KeypleCardExtension</text><text fill="#000000" font-family="sans-serif" font-size="14" lengthAdjust="spacing" textLength="16" x="644.25" y="230.8477">&gt;&gt;</text><text fill="#000000" font-family="sans-serif" font-size="14" font-weight="bold" lengthAdjust="spacing" textLength="30" x="453.25" y="249.4688">final</text><text fill="#000000" font-family="sans-serif" font-size="14" lengthAdjust="spacing" textLength="213" x="487.25" y="249.4688">LegacySamCardExtensionService</text><line style="stroke:#27AE60;stroke-width:2.0;" x1="23" x2="1087" y1="257.9824" y2="257.9824"/><line style="stroke:#27AE60;stroke-width:1.0;" x1="23" x2="1087" y1="265.9824" y2="265.9824"/><ellipse cx="33" cy="280.793" fill="#84BE84" rx="3" ry="3" style="stroke:#038048;stroke-width:1.0;"/><text fill="#000000" font-family="sans-serif" font-size="14" lengthAdjust="spacing" text-decoration="underline" textLength="304" x="42" y="285.0898">LegacySamCardExtensionService getInstance ()</text><text fill="#000000" font-family="sans-serif" font-size="14" lengthAdjust="spacing" textLength="4" x="42" y="303.7109">&#160;</text><ellipse cx="33" cy="318.0352" fill="#84BE84" rx="3" ry="3" style="stroke:#038048;stroke-width:1.0;"/><text fill="#000000" filter="url(#bc2gnkgu6319i0)" font-family="sans-serif" font-size="14" lengthAdjust="spacing" textLength="142" x="42" y="322.332">LegacySamApiFactory</text><text fill="#000000" font-family="sans-serif" font-size="14" lengthAdjust="spacing" textLength="176" x="188" y="322.332">getLegacySamApiFactory ()</text><text fill="#000000" font-family="sans-serif" font-size="14" lengthAdjust="spacing" textLength="4" x="42" y="340.9531">&#160;</text><ellipse cx="33" cy="355.2773" fill="#84BE84" rx="3" ry="3" style="stroke:#038048;stroke-width:1.0;"/><text fill="#000000" filter="url(#bc2gnkgu6319i2)" font-family="sans-serif" font-size="14" lengthAdjust="spacing" textLength="193" x="42" y="359.5742">CardResourceProfileExtension</text><text fill="#000000" font-family="sans-serif" font-size="14" lengthAdjust="spacing" textLength="285" x="239" y="359.5742">createLegacySamResourceProfileExtension (</text><text fill="#000000" filter="url(#bc2gnkgu6319i0)" font-family="sans-serif" font-size="14" lengthAdjust="spacing" textLength="193" x="524" y="359.5742">LegacySamSelectionExtension</text><text fill="#000000" font-family="sans-serif" font-size="14" lengthAdjust="spacing" textLength="193" x="721" y="359.5742">legacySamSelectionExtension)</text><ellipse cx="33" cy="373.8984" fill="#84BE84" rx="3" ry="3" style="stroke:#038048;stroke-width:1.0;"/><text fill="#000000" filter="url(#bc2gnkgu6319i2)" font-family="sans-serif" font-size="14" lengthAdjust="spacing" textLength="193" x="42" y="378.1953">CardResourceProfileExtension</text><text fill="#000000" font-family="sans-serif" font-size="14" lengthAdjust="spacing" textLength="285" x="239" y="378.1953">createLegacySamResourceProfileExtension (</text><text fill="#000000" filter="url(#bc2gnkgu6319i0)" font-family="sans-serif" font-size="14" lengthAdjust="spacing" textLength="193" x="524" y="378.1953">LegacySamSelectionExtension</text><text fill="#000000" font-family="sans-serif" font-size="14" lengthAdjust="spacing" textLength="361" x="721" y="378.1953">legacySamSelectionExtension, String powerOnDataFilter)</text><text fill="#000000" font-family="sans-serif" font-size="14" lengthAdjust="spacing" textLength="4" x="42" y="396.8164">&#160;</text><ellipse cx="33" cy="433.7617" fill="#84BE84" rx="3" ry="3" style="stroke:#038048;stroke-width:1.0;"/><text fill="#000000" font-family="sans-serif" font-size="14" lengthAdjust="spacing" textLength="199" x="42" y="438.0586">String getCommonApiVersion ()</text><ellipse cx="33" cy="452.3828" fill="#84BE84" rx="3" ry="3" style="stroke:#038048;stroke-width:1.0;"/><text fill="#000000" font-family="sans-serif" font-size="14" lengthAdjust="spacing" textLength="190" x="42" y="456.6797">String getReaderApiVersion ()</text><ellipse cx="33" cy="471.0039" fill="#84BE84" rx="3" ry="3" style="stroke:#038048;stroke-width:1.0;"/><text fill="#000000" font-family="sans-serif" font-size="14" lengthAdjust="spacing" textLength="174" x="42" y="475.3008">String getCardApiVersion ()</text><line style="stroke:#27AE60;stroke-width:1.0;" x1="23" x2="479.5" y1="413.6406" y2="413.6406"/><text fill="#000000" font-family="sans-serif" font-size="14" font-weight="bold" lengthAdjust="spacing" textLength="151" x="479.5" y="418.9375">KeypleCardExtension</text><line style="stroke:#27AE60;stroke-width:1.0;" x1="630.5" x2="1087" y1="413.6406" y2="413.6406"/></g><!--class LegacySamUtil--><g id="elem_LegacySamUtil"><rect codeLine="76" fill="#E9F7EF" height="66.6211" id="LegacySamUtil" rx="2.5" ry="2.5" style="stroke:#27AE60;stroke-width:2.0;" width="646" x="232" y="542.7402"/><ellipse cx="481.75" cy="558.7402" fill="#ADD1B2" rx="11" ry="11" style="stroke:#181818;stroke-width:1.0;"/><path d="M484.5156,554.6152 Q484.6719,554.3965 484.8594,554.2871 Q485.0469,554.1777 485.2656,554.1777 Q485.6406,554.1777 485.875,554.4434 Q486.1094,554.6934 486.1094,555.3027 L486.1094,556.7559 Q486.1094,557.3652 485.875,557.6309 Q485.6406,557.8965 485.2656,557.8965 Q484.9219,557.8965 484.7188,557.6934 Q484.5156,557.5059 484.4063,556.9902 Q484.3594,556.6309 484.1719,556.4434 Q483.8438,556.0684 483.2344,555.8496 Q482.625,555.6309 482,555.6309 Q481.2344,555.6309 480.5938,555.959 Q479.9688,556.2871 479.4688,557.0371 Q478.9844,557.7871 478.9844,558.8184 L478.9844,559.9121 Q478.9844,561.1465 479.875,561.9746 Q480.7656,562.7871 482.3594,562.7871 Q483.2969,562.7871 483.9531,562.5371 Q484.3438,562.3809 484.7656,561.9434 Q485.0313,561.6777 485.1719,561.5996 Q485.3281,561.5215 485.5313,561.5215 Q485.8594,561.5215 486.1094,561.7871 Q486.375,562.0371 486.375,562.3809 Q486.375,562.7246 486.0313,563.1309 Q485.5313,563.709 484.7344,564.0371 Q483.6563,564.4902 482.3594,564.4902 Q480.8438,564.4902 479.6406,563.8652 Q478.6563,563.3652 477.9688,562.3027 Q477.2813,561.2246 477.2813,559.9434 L477.2813,558.7871 Q477.2813,557.459 477.8906,556.3184 Q478.5156,555.1621 479.6094,554.5527 Q480.7031,553.9277 481.9375,553.9277 Q482.6719,553.9277 483.3125,554.0996 Q483.9688,554.2559 484.5156,554.6152 Z " fill="#000000"/><ellipse cx="507.25" cy="558.2402" fill="#84BE84" rx="3" ry="3" style="stroke:#038048;stroke-width:1.0;"/><text fill="#000000" font-family="sans-serif" font-size="14" font-weight="bold" lengthAdjust="spacing" textLength="30" x="513.25" y="564.5371">final</text><text fill="#000000" font-family="sans-serif" font-size="14" lengthAdjust="spacing" textLength="93" x="547.25" y="564.5371">LegacySamUtil</text><line style="stroke:#27AE60;stroke-width:2.0;" x1="233" x2="877" y1="574.7402" y2="574.7402"/><line style="stroke:#27AE60;stroke-width:2.0;" x1="233" x2="877" y1="582.7402" y2="582.7402"/><ellipse cx="243" cy="597.5508" fill="#84BE84" rx="3" ry="3" style="stroke:#038048;stroke-width:1.0;"/><text fill="#000000" font-family="sans-serif" font-size="14" lengthAdjust="spacing" text-decoration="underline" textLength="200" x="252" y="601.8477">String buildPowerOnDataFilter (</text><text fill="#000000" filter="url(#bc2gnkgu6319i0)" font-family="sans-serif" font-size="14" lengthAdjust="spacing" text-decoration="underline" textLength="159" x="452" y="601.8477">LegacySam.ProductType</text><text fill="#000000" font-family="sans-serif" font-size="14" lengthAdjust="spacing" text-decoration="underline" textLength="257" x="615" y="601.8477">productType, String serialNumberRegex)</text></g><!--link LegacySamCardExtensionService to LegacySamUtil--><!--SRC=[rLPTR-8u57tdLzpjF4nBDz02BQLYAeN4cQscsrQ5hbJjhYgJkE35n97jb45L__lUV06XAUphye2Sc-DpVE-rZsEu4Qm6-Fl1bf5WOC4i7LW-LG7-YMMafUMhPMIa9TY4-ajDvzO_z9LQWeyHVzeuQHp3OUkarRPEpgrMxwZ6mW1Cobpx2j- -mUWtyZl10JuwCXOiLXgurZ7J432uXAanaRviDgTcBdmffF9bm7J3b_FcYseQEXQCnbQ0YyfcLuHmgFaaj291JRFsIy1UUCZ0UVx-G9vEmRlmUbvlAzm2h-MrlSvMk0taZ7J9Dhe3RjSTkEvM-0mSs_7SrbRu70QkqtQw6-6RwziVqExqBjp1HlHnIA3LjSdvIL8houAXMGgiYvbI0u4ClnfOI3M31JTJ2Da2NfdIN8OWNm1p3Kqy5pYjfcSyZAYYSz26AIRDCcBsGAg0AIUfA7onUwxZUfN0wn9mqB6xvAmIw9GPNVTqqAe4aXAG37fjb4xp8xTkijwDMOwWMcVuqPJxiv1f3Pkqjb9oiVaAcPwO47BnWONwiucISHZaoXxnY4EgnNA8sx6T4nSf7rYmXw_VLoouka9QbxZ4sK6xGf9k1_T1RSfnenV1TPbGzJvMUDps2aSfBDNk4CVhxjHUWoz8fsExXVmgNbh1MCJxzHDGci_0E_C6EzKBQBxNS-qyMbB-hXWBzqfF4bIgtVEwnDkflSBcPoeNByBRwil_8hvCjMtSHsIVTWfjEMrojYczB2jddkZStOx8xIXrHVJLr39bb5hnytFAg26BFp_3PHglunlo4ub2Ai2-lmR5Nf0rz9bUO-hG7sCIbu9FfYRBkrvFF5r6U-oSHhnUxpUJsLTbBdz92vRaPf3pkGptpP6AXXEsdgMPUkK-inJJCbOuAAwGzVoa1bdAjLg44JfXS23LfC5ymIFD6XbL8xcQ6dakZIoNnYgN0w1fuR8dU4jNTUmdtOA3VdyZeUp6Sv0iAMgOk6g-agkhly9w7HsQ2ipd9YKRqda9EipoIULs8ZQsNxQOv8SEM0oFtxIXXlllUsWcp5o72CLsm-5HRJt_GxzNF7R4FUeRgPPvOWb9nTiglhn_oL8UyfRTA_d21Tkk5lYAKSDMl9_1uV3pbGwPOBv1q0ToyJdaw7-uvb_nWbSyd40a5qpTXIurrEC23_L62_2QhDShjYTknisDapDXJvtqI693_yY_3WwFgc0FZA9TxOKbcXz1xwMJL74y7WqNvUEGH2gt_thFvwhZc8lWVhiakwhVm5O5iMz6QAb5tQDrQ5Ldz1rEnMqy7pFrWERoiyZcFJ5YMslfSvgqIEV6V6C_tJrclhpxG5f_eiK7BFpRAcUSymn7JpVPHs_XPMjN-b9ycBwzr_u5]--></g></svg>