<?xml version="1.0" encoding="UTF-8" standalone="no"?><svg xmlns="http://www.w3.org/2000/svg" xmlns:xlink="http://www.w3.org/1999/xlink" contentStyleType="text/css" height="409px" preserveAspectRatio="none" style="width:958px;height:409px;background:#FFFFFF;" version="1.1" viewBox="0 0 958 409" width="958px" zoomAndPan="magnify"><defs><filter height="1" id="b1aujautk81i5f0" width="1" x="0" y="0"><feFlood flood-color="#90EE90" result="flood"/><feComposite in="SourceGraphic" in2="flood" operator="over"/></filter><filter height="1" id="b1aujautk81i5f1" width="1" x="0" y="0"><feFlood flood-color="#FFA500" result="flood"/><feComposite in="SourceGraphic" in2="flood" operator="over"/></filter></defs><g><text fill="#000000" font-family="sans-serif" font-size="14" font-weight="bold" lengthAdjust="spacing" textLength="517" x="213.5" y="25.1074">Keyple - keyple-card-calypso-crypto-legacysam-java-lib - 0.1.+ (2022-12-05)</text><rect fill="#DDDDDD" height="84.4844" id="_legend" rx="7.5" ry="7.5" style="stroke:#000000;stroke-width:1.0;" width="409" x="267.5" y="51.6211"/><text fill="#000000" font-family="sans-serif" font-size="14" lengthAdjust="spacing" text-decoration="underline" textLength="88" x="272.5" y="71.7285">Colors legend</text><text fill="#000000" font-family="sans-serif" font-size="14" lengthAdjust="spacing" textLength="4" x="364.5" y="71.7285">:</text><ellipse cx="278" cy="86.3633" fill="#000000" rx="2.5" ry="2.5" style="stroke:#000000;stroke-width:0.0;"/><text fill="#000000" font-family="sans-serif" font-size="14" lengthAdjust="spacing" text-decoration="underline" textLength="148" x="284.5" y="90.3496">External API references</text><text fill="#000000" font-family="sans-serif" font-size="14" lengthAdjust="spacing" textLength="4" x="436.5" y="90.3496">:</text><rect fill="#000000" height="3.5" style="stroke:#000000;stroke-width:0.0;" width="3.5" x="281.5" y="102.4844"/><text fill="#000000" filter="url(#b1aujautk81i5f0)" font-family="sans-serif" font-size="14" font-weight="bold" lengthAdjust="spacing" textLength="383" x="288.5" y="108.9707">calypsonet-terminal-calypso-crypto-legacysam-java-api</text><rect fill="#000000" height="3.5" style="stroke:#000000;stroke-width:0.0;" width="3.5" x="281.5" y="121.1055"/><text fill="#000000" filter="url(#b1aujautk81i5f1)" font-family="sans-serif" font-size="14" font-weight="bold" lengthAdjust="spacing" textLength="229" x="288.5" y="127.5918">keyple-service-resource-java-lib</text><!--MD5=[d69a78b92018503d3be26d6e6dea574e]
cluster legacysam--><g id="cluster_legacysam"><path d="M8.5,155.1191 L355.5,155.1191 A3.75,3.75 0 0 1 358,157.6191 L365,179.7402 L948.5,179.7402 A2.5,2.5 0 0 1 951,182.2402 L951,399.6191 A2.5,2.5 0 0 1 948.5,402.1191 L8.5,402.1191 A2.5,2.5 0 0 1 6,399.6191 L6,157.6191 A2.5,2.5 0 0 1 8.5,155.1191 " fill="#F8F9F9" style="stroke:#000000;stroke-width:1.5;"/><line style="stroke:#000000;stroke-width:1.5;" x1="6" x2="365" y1="179.7402" y2="179.7402"/><text fill="#000000" font-family="sans-serif" font-size="14" font-weight="bold" lengthAdjust="spacing" textLength="346" x="10" y="172.2266">org.eclipse.keyple.card.calypso.crypto.legacysam</text></g><!--MD5=[c797ddc948439ec2ba723102791572b9]
class CardSelectionFactoryProvider--><g id="elem_CardSelectionFactoryProvider"><rect codeLine="61" fill="#FEFECE" height="66.6211" id="CardSelectionFactoryProvider" rx="2.5" ry="2.5" style="stroke:#D4AC0D;stroke-width:2.0;" width="267" x="24.5" y="192.1191"/><ellipse cx="39.5" cy="208.1191" fill="#ADD1B2" rx="11" ry="11" style="stroke:#181818;stroke-width:1.0;"/><path d="M42.2656,203.9941 Q42.4219,203.7754 42.6094,203.666 Q42.7969,203.5566 43.0156,203.5566 Q43.3906,203.5566 43.625,203.8223 Q43.8594,204.0723 43.8594,204.6816 L43.8594,206.1348 Q43.8594,206.7441 43.625,207.0098 Q43.3906,207.2754 43.0156,207.2754 Q42.6719,207.2754 42.4688,207.0723 Q42.2656,206.8848 42.1563,206.3691 Q42.1094,206.0098 41.9219,205.8223 Q41.5938,205.4473 40.9844,205.2285 Q40.375,205.0098 39.75,205.0098 Q38.9844,205.0098 38.3438,205.3379 Q37.7188,205.666 37.2188,206.416 Q36.7344,207.166 36.7344,208.1973 L36.7344,209.291 Q36.7344,210.5254 37.625,211.3535 Q38.5156,212.166 40.1094,212.166 Q41.0469,212.166 41.7031,211.916 Q42.0938,211.7598 42.5156,211.3223 Q42.7813,211.0566 42.9219,210.9785 Q43.0781,210.9004 43.2813,210.9004 Q43.6094,210.9004 43.8594,211.166 Q44.125,211.416 44.125,211.7598 Q44.125,212.1035 43.7813,212.5098 Q43.2813,213.0879 42.4844,213.416 Q41.4063,213.8691 40.1094,213.8691 Q38.5938,213.8691 37.3906,213.2441 Q36.4063,212.7441 35.7188,211.6816 Q35.0313,210.6035 35.0313,209.3223 L35.0313,208.166 Q35.0313,206.8379 35.6406,205.6973 Q36.2656,204.541 37.3594,203.9316 Q38.4531,203.3066 39.6875,203.3066 Q40.4219,203.3066 41.0625,203.4785 Q41.7188,203.6348 42.2656,203.9941 Z " fill="#000000"/><ellipse cx="58.5" cy="207.6191" fill="#84BE84" rx="3" ry="3" style="stroke:#038048;stroke-width:1.0;"/><text fill="#000000" font-family="sans-serif" font-size="14" font-weight="bold" lengthAdjust="spacing" textLength="30" x="64.5" y="213.916">final</text><text fill="#000000" font-family="sans-serif" font-size="14" lengthAdjust="spacing" textLength="190" x="98.5" y="213.916">CardSelectionFactoryProvider</text><line style="stroke:#D4AC0D;stroke-width:2.0;" x1="25.5" x2="290.5" y1="224.1191" y2="224.1191"/><line style="stroke:#D4AC0D;stroke-width:2.0;" x1="25.5" x2="290.5" y1="232.1191" y2="232.1191"/><ellipse cx="35.5" cy="246.9297" fill="#84BE84" rx="3" ry="3" style="stroke:#038048;stroke-width:1.0;"/><text fill="#000000" filter="url(#b1aujautk81i5f0)" font-family="sans-serif" font-size="14" lengthAdjust="spacing" text-decoration="underline" textLength="137" x="44.5" y="251.2266">CardSelectionFactory</text><text fill="#000000" font-family="sans-serif" font-size="14" lengthAdjust="spacing" text-decoration="underline" textLength="82" x="185.5" y="251.2266">getFactory ()</text></g><!--MD5=[68c93bcf4959ececb310e06977ae29cf]
class LegacySamTransactionManagerFactoryProvider--><g id="elem_LegacySamTransactionManagerFactoryProvider"><rect codeLine="64" fill="#FEFECE" height="66.6211" id="LegacySamTransactionManagerFactoryProvider" rx="2.5" ry="2.5" style="stroke:#D4AC0D;stroke-width:2.0;" width="383" x="326.5" y="192.1191"/><ellipse cx="341.5" cy="208.1191" fill="#ADD1B2" rx="11" ry="11" style="stroke:#181818;stroke-width:1.0;"/><path d="M344.2656,203.9941 Q344.4219,203.7754 344.6094,203.666 Q344.7969,203.5566 345.0156,203.5566 Q345.3906,203.5566 345.625,203.8223 Q345.8594,204.0723 345.8594,204.6816 L345.8594,206.1348 Q345.8594,206.7441 345.625,207.0098 Q345.3906,207.2754 345.0156,207.2754 Q344.6719,207.2754 344.4688,207.0723 Q344.2656,206.8848 344.1563,206.3691 Q344.1094,206.0098 343.9219,205.8223 Q343.5938,205.4473 342.9844,205.2285 Q342.375,205.0098 341.75,205.0098 Q340.9844,205.0098 340.3438,205.3379 Q339.7188,205.666 339.2188,206.416 Q338.7344,207.166 338.7344,208.1973 L338.7344,209.291 Q338.7344,210.5254 339.625,211.3535 Q340.5156,212.166 342.1094,212.166 Q343.0469,212.166 343.7031,211.916 Q344.0938,211.7598 344.5156,211.3223 Q344.7813,211.0566 344.9219,210.9785 Q345.0781,210.9004 345.2813,210.9004 Q345.6094,210.9004 345.8594,211.166 Q346.125,211.416 346.125,211.7598 Q346.125,212.1035 345.7813,212.5098 Q345.2813,213.0879 344.4844,213.416 Q343.4063,213.8691 342.1094,213.8691 Q340.5938,213.8691 339.3906,213.2441 Q338.4063,212.7441 337.7188,211.6816 Q337.0313,210.6035 337.0313,209.3223 L337.0313,208.166 Q337.0313,206.8379 337.6406,205.6973 Q338.2656,204.541 339.3594,203.9316 Q340.4531,203.3066 341.6875,203.3066 Q342.4219,203.3066 343.0625,203.4785 Q343.7188,203.6348 344.2656,203.9941 Z " fill="#000000"/><ellipse cx="360.5" cy="207.6191" fill="#84BE84" rx="3" ry="3" style="stroke:#038048;stroke-width:1.0;"/><text fill="#000000" font-family="sans-serif" font-size="14" font-weight="bold" lengthAdjust="spacing" textLength="30" x="366.5" y="213.916">final</text><text fill="#000000" font-family="sans-serif" font-size="14" lengthAdjust="spacing" textLength="306" x="400.5" y="213.916">LegacySamTransactionManagerFactoryProvider</text><line style="stroke:#D4AC0D;stroke-width:2.0;" x1="327.5" x2="708.5" y1="224.1191" y2="224.1191"/><line style="stroke:#D4AC0D;stroke-width:2.0;" x1="327.5" x2="708.5" y1="232.1191" y2="232.1191"/><ellipse cx="337.5" cy="246.9297" fill="#84BE84" rx="3" ry="3" style="stroke:#038048;stroke-width:1.0;"/><text fill="#000000" filter="url(#b1aujautk81i5f0)" font-family="sans-serif" font-size="14" lengthAdjust="spacing" text-decoration="underline" textLength="253" x="346.5" y="251.2266">LegacySamTransactionManagerFactory</text><text fill="#000000" font-family="sans-serif" font-size="14" lengthAdjust="spacing" text-decoration="underline" textLength="82" x="603.5" y="251.2266">getFactory ()</text></g><!--MD5=[e0c794f328e90136df5f8bff80b1df67]
class CommandDataFactoryProvider--><g id="elem_CommandDataFactoryProvider"><rect codeLine="67" fill="#FEFECE" height="66.6211" id="CommandDataFactoryProvider" rx="2.5" ry="2.5" style="stroke:#D4AC0D;stroke-width:2.0;" width="272" x="22" y="319.1191"/><ellipse cx="37" cy="335.1191" fill="#ADD1B2" rx="11" ry="11" style="stroke:#181818;stroke-width:1.0;"/><path d="M39.7656,330.9941 Q39.9219,330.7754 40.1094,330.666 Q40.2969,330.5566 40.5156,330.5566 Q40.8906,330.5566 41.125,330.8223 Q41.3594,331.0723 41.3594,331.6816 L41.3594,333.1348 Q41.3594,333.7441 41.125,334.0098 Q40.8906,334.2754 40.5156,334.2754 Q40.1719,334.2754 39.9688,334.0723 Q39.7656,333.8848 39.6563,333.3691 Q39.6094,333.0098 39.4219,332.8223 Q39.0938,332.4473 38.4844,332.2285 Q37.875,332.0098 37.25,332.0098 Q36.4844,332.0098 35.8438,332.3379 Q35.2188,332.666 34.7188,333.416 Q34.2344,334.166 34.2344,335.1973 L34.2344,336.291 Q34.2344,337.5254 35.125,338.3535 Q36.0156,339.166 37.6094,339.166 Q38.5469,339.166 39.2031,338.916 Q39.5938,338.7598 40.0156,338.3223 Q40.2813,338.0566 40.4219,337.9785 Q40.5781,337.9004 40.7813,337.9004 Q41.1094,337.9004 41.3594,338.166 Q41.625,338.416 41.625,338.7598 Q41.625,339.1035 41.2813,339.5098 Q40.7813,340.0879 39.9844,340.416 Q38.9063,340.8691 37.6094,340.8691 Q36.0938,340.8691 34.8906,340.2441 Q33.9063,339.7441 33.2188,338.6816 Q32.5313,337.6035 32.5313,336.3223 L32.5313,335.166 Q32.5313,333.8379 33.1406,332.6973 Q33.7656,331.541 34.8594,330.9316 Q35.9531,330.3066 37.1875,330.3066 Q37.9219,330.3066 38.5625,330.4785 Q39.2188,330.6348 39.7656,330.9941 Z " fill="#000000"/><ellipse cx="56" cy="334.6191" fill="#84BE84" rx="3" ry="3" style="stroke:#038048;stroke-width:1.0;"/><text fill="#000000" font-family="sans-serif" font-size="14" font-weight="bold" lengthAdjust="spacing" textLength="30" x="62" y="340.916">final</text><text fill="#000000" font-family="sans-serif" font-size="14" lengthAdjust="spacing" textLength="195" x="96" y="340.916">CommandDataFactoryProvider</text><line style="stroke:#D4AC0D;stroke-width:2.0;" x1="23" x2="293" y1="351.1191" y2="351.1191"/><line style="stroke:#D4AC0D;stroke-width:2.0;" x1="23" x2="293" y1="359.1191" y2="359.1191"/><ellipse cx="33" cy="373.9297" fill="#84BE84" rx="3" ry="3" style="stroke:#038048;stroke-width:1.0;"/><text fill="#000000" filter="url(#b1aujautk81i5f0)" font-family="sans-serif" font-size="14" lengthAdjust="spacing" text-decoration="underline" textLength="142" x="42" y="378.2266">CommandDataFactory</text><text fill="#000000" font-family="sans-serif" font-size="14" lengthAdjust="spacing" text-decoration="underline" textLength="82" x="188" y="378.2266">getFactory ()</text></g><!--MD5=[d6c521041c80d89be997d77248b89fdd]
class CardResourceProfileExtensionProvider--><g id="elem_CardResourceProfileExtensionProvider"><rect codeLine="70" fill="#FEFECE" height="66.6211" id="CardResourceProfileExtensionProvider" rx="2.5" ry="2.5" style="stroke:#D4AC0D;stroke-width:2.0;" width="606" x="329" y="319.1191"/><ellipse cx="482.25" cy="335.1191" fill="#ADD1B2" rx="11" ry="11" style="stroke:#181818;stroke-width:1.0;"/><path d="M485.0156,330.9941 Q485.1719,330.7754 485.3594,330.666 Q485.5469,330.5566 485.7656,330.5566 Q486.1406,330.5566 486.375,330.8223 Q486.6094,331.0723 486.6094,331.6816 L486.6094,333.1348 Q486.6094,333.7441 486.375,334.0098 Q486.1406,334.2754 485.7656,334.2754 Q485.4219,334.2754 485.2188,334.0723 Q485.0156,333.8848 484.9063,333.3691 Q484.8594,333.0098 484.6719,332.8223 Q484.3438,332.4473 483.7344,332.2285 Q483.125,332.0098 482.5,332.0098 Q481.7344,332.0098 481.0938,332.3379 Q480.4688,332.666 479.9688,333.416 Q479.4844,334.166 479.4844,335.1973 L479.4844,336.291 Q479.4844,337.5254 480.375,338.3535 Q481.2656,339.166 482.8594,339.166 Q483.7969,339.166 484.4531,338.916 Q484.8438,338.7598 485.2656,338.3223 Q485.5313,338.0566 485.6719,337.9785 Q485.8281,337.9004 486.0313,337.9004 Q486.3594,337.9004 486.6094,338.166 Q486.875,338.416 486.875,338.7598 Q486.875,339.1035 486.5313,339.5098 Q486.0313,340.0879 485.2344,340.416 Q484.1563,340.8691 482.8594,340.8691 Q481.3438,340.8691 480.1406,340.2441 Q479.1563,339.7441 478.4688,338.6816 Q477.7813,337.6035 477.7813,336.3223 L477.7813,335.166 Q477.7813,333.8379 478.3906,332.6973 Q479.0156,331.541 480.1094,330.9316 Q481.2031,330.3066 482.4375,330.3066 Q483.1719,330.3066 483.8125,330.4785 Q484.4688,330.6348 485.0156,330.9941 Z " fill="#000000"/><ellipse cx="507.75" cy="334.6191" fill="#84BE84" rx="3" ry="3" style="stroke:#038048;stroke-width:1.0;"/><text fill="#000000" font-family="sans-serif" font-size="14" font-weight="bold" lengthAdjust="spacing" textLength="30" x="513.75" y="340.916">final</text><text fill="#000000" font-family="sans-serif" font-size="14" lengthAdjust="spacing" textLength="246" x="547.75" y="340.916">CardResourceProfileExtensionProvider</text><line style="stroke:#D4AC0D;stroke-width:2.0;" x1="330" x2="934" y1="351.1191" y2="351.1191"/><line style="stroke:#D4AC0D;stroke-width:2.0;" x1="330" x2="934" y1="359.1191" y2="359.1191"/><ellipse cx="340" cy="373.9297" fill="#84BE84" rx="3" ry="3" style="stroke:#038048;stroke-width:1.0;"/><text fill="#000000" filter="url(#b1aujautk81i5f1)" font-family="sans-serif" font-size="14" lengthAdjust="spacing" text-decoration="underline" textLength="193" x="349" y="378.2266">CardResourceProfileExtension</text><text fill="#000000" font-family="sans-serif" font-size="14" lengthAdjust="spacing" text-decoration="underline" textLength="158" x="546" y="378.2266">getSamProfileExtension (</text><text fill="#000000" filter="url(#b1aujautk81i5f0)" font-family="sans-serif" font-size="14" lengthAdjust="spacing" text-decoration="underline" textLength="132" x="704" y="378.2266">LegacySamSelection</text><text fill="#000000" font-family="sans-serif" font-size="14" lengthAdjust="spacing" text-decoration="underline" textLength="89" x="840" y="378.2266">samSelection)</text></g><!--MD5=[a066b523c5179f152aedd5cd360c610b]
@startuml
title
    Keyple - keyple-card-calypso-crypto-legacysam-java-lib - 0.1.+ (2022-12-05)
end title

' == THEME ==

'Couleurs issues de : https://htmlcolorcodes.com/fr/tableau-de-couleur/tableau-de-couleur-design-plat/
!define C_GREY1 F8F9F9
!define C_GREY2 F2F3F4
!define C_GREY3 E5E7E9
!define C_GREY4 D7DBDD
!define C_GREY5 CACFD2
!define C_GREY6 BDC3C7
!define C_LINK 3498DB
!define C_USE 27AE60

' - - Styles that don't work with new version of plantuml - -
skinparam stereotypeABorderColor #A9DCDF
skinparam stereotypeIBorderColor #B4A7E5
skinparam stereotypeCBorderColor #ADD1B2
skinparam stereotypeEBorderColor #EB93DF
' - - END - -

skinparam ClassBorderThickness 2
skinparam ArrowThickness 2

' Yellow
skinparam ClassBackgroundColor #FEFECE
skinparam ClassBorderColor #D4AC0D
' Red
skinparam ClassBackgroundColor<<red>> #FDEDEC
skinparam ClassBorderColor<<red>> #E74C3C
hide <<red>> stereotype
' Purple
skinparam ClassBackgroundColor<<purple>> #F4ECF7
skinparam ClassBorderColor<<purple>> #8E44AD
hide <<purple>> stereotype
' blue
skinparam ClassBackgroundColor<<blue>> #EBF5FB
skinparam ClassBorderColor<<blue>> #3498DB
hide <<blue>> stereotype
' Green
skinparam ClassBackgroundColor<<green>> #E9F7EF
skinparam ClassBorderColor<<green>> #27AE60
hide <<green>> stereotype
' Grey
skinparam ClassBackgroundColor<<grey>> #EAECEE
skinparam ClassBorderColor<<grey>> #2C3E50
hide <<grey>> stereotype

' == CONTENT ==

legend top
    __Colors legend__ :
    * __External API references__ :
    ** <back:lightgreen>**calypsonet-terminal-calypso-crypto-legacysam-java-api**</back>
    ** <back:orange>**keyple-service-resource-java-lib**</back>
end legend

package "org.eclipse.keyple.card.calypso.crypto.legacysam" as legacysam {
    +class "**final** CardSelectionFactoryProvider" as CardSelectionFactoryProvider {
        +{static} <back:lightgreen>CardSelectionFactory</back> getFactory ()
    }
    +class "**final** LegacySamTransactionManagerFactoryProvider" as LegacySamTransactionManagerFactoryProvider {
        +{static} <back:lightgreen>LegacySamTransactionManagerFactory</back> getFactory ()
    }
    +class "**final** CommandDataFactoryProvider" as CommandDataFactoryProvider {
        +{static} <back:lightgreen>CommandDataFactory</back> getFactory ()
    }
    +class "**final** CardResourceProfileExtensionProvider" as CardResourceProfileExtensionProvider {
        +{static} <back:orange>CardResourceProfileExtension</back> getSamProfileExtension (<back:lightgreen>LegacySamSelection</back> samSelection)
    }
}

' Associations

' == LAYOUT ==

' == STYLE ==

package legacysam #C_GREY1 {}

@enduml

@startuml
title
    Keyple - keyple-card-calypso-crypto-legacysam-java-lib - 0.1.+ (2022-12-05)
end title



skinparam stereotypeABorderColor #A9DCDF
skinparam stereotypeIBorderColor #B4A7E5
skinparam stereotypeCBorderColor #ADD1B2
skinparam stereotypeEBorderColor #EB93DF

skinparam ClassBorderThickness 2
skinparam ArrowThickness 2

skinparam ClassBackgroundColor #FEFECE
skinparam ClassBorderColor #D4AC0D
skinparam ClassBackgroundColor<<red>> #FDEDEC
skinparam ClassBorderColor<<red>> #E74C3C
hide <<red>> stereotype
skinparam ClassBackgroundColor<<purple>> #F4ECF7
skinparam ClassBorderColor<<purple>> #8E44AD
hide <<purple>> stereotype
skinparam ClassBackgroundColor<<blue>> #EBF5FB
skinparam ClassBorderColor<<blue>> #3498DB
hide <<blue>> stereotype
skinparam ClassBackgroundColor<<green>> #E9F7EF
skinparam ClassBorderColor<<green>> #27AE60
hide <<green>> stereotype
skinparam ClassBackgroundColor<<grey>> #EAECEE
skinparam ClassBorderColor<<grey>> #2C3E50
hide <<grey>> stereotype


legend top
    __Colors legend__ :
    * __External API references__ :
    ** <back:lightgreen>**calypsonet-terminal-calypso-crypto-legacysam-java-api**</back>
    ** <back:orange>**keyple-service-resource-java-lib**</back>
end legend

package "org.eclipse.keyple.card.calypso.crypto.legacysam" as legacysam {
    +class "**final** CardSelectionFactoryProvider" as CardSelectionFactoryProvider {
        +{static} <back:lightgreen>CardSelectionFactory</back> getFactory ()
    }
    +class "**final** LegacySamTransactionManagerFactoryProvider" as LegacySamTransactionManagerFactoryProvider {
        +{static} <back:lightgreen>LegacySamTransactionManagerFactory</back> getFactory ()
    }
    +class "**final** CommandDataFactoryProvider" as CommandDataFactoryProvider {
        +{static} <back:lightgreen>CommandDataFactory</back> getFactory ()
    }
    +class "**final** CardResourceProfileExtensionProvider" as CardResourceProfileExtensionProvider {
        +{static} <back:orange>CardResourceProfileExtension</back> getSamProfileExtension (<back:lightgreen>LegacySamSelection</back> samSelection)
    }
}




package legacysam #F8F9F9 {}

@enduml

PlantUML version 1.2022.13(Sat Nov 19 14:22:17 CET 2022)
(GPL source distribution)
Java Runtime: OpenJDK Runtime Environment
JVM: OpenJDK 64-Bit Server VM
Default Encoding: Cp1252
Language: fr
Country: FR
--></g></svg>