<?xml version="1.0" encoding="UTF-8" standalone="no"?><svg xmlns="http://www.w3.org/2000/svg" xmlns:xlink="http://www.w3.org/1999/xlink" contentStyleType="text/css" height="409px" preserveAspectRatio="none" style="width:1032px;height:409px;background:#FFFFFF;" version="1.1" viewBox="0 0 1032 409" width="1032px" zoomAndPan="magnify"><defs><filter height="1" id="b165nzpq0trxiv0" width="1" x="0" y="0"><feFlood flood-color="#90EE90" result="flood"/><feComposite in="SourceGraphic" in2="flood" operator="over"/></filter><filter height="1" id="b165nzpq0trxiv1" width="1" x="0" y="0"><feFlood flood-color="#FFA500" result="flood"/><feComposite in="SourceGraphic" in2="flood" operator="over"/></filter></defs><g><text fill="#000000" font-family="sans-serif" font-size="14" font-weight="bold" lengthAdjust="spacing" textLength="517" x="250.5" y="25.1074">Keyple - keyple-card-calypso-crypto-legacysam-java-lib - 0.1.+ (2022-12-12)</text><rect fill="#DDDDDD" height="84.4844" id="_legend" rx="7.5" ry="7.5" style="stroke:#000000;stroke-width:1.0;" width="409" x="304.5" y="51.6211"/><text fill="#000000" font-family="sans-serif" font-size="14" lengthAdjust="spacing" text-decoration="underline" textLength="88" x="309.5" y="71.7285">Colors legend</text><text fill="#000000" font-family="sans-serif" font-size="14" lengthAdjust="spacing" textLength="4" x="401.5" y="71.7285">:</text><ellipse cx="315" cy="86.3633" fill="#000000" rx="2.5" ry="2.5" style="stroke:#000000;stroke-width:0.0;"/><text fill="#000000" font-family="sans-serif" font-size="14" lengthAdjust="spacing" text-decoration="underline" textLength="148" x="321.5" y="90.3496">External API references</text><text fill="#000000" font-family="sans-serif" font-size="14" lengthAdjust="spacing" textLength="4" x="473.5" y="90.3496">:</text><rect fill="#000000" height="3.5" style="stroke:#000000;stroke-width:0.0;" width="3.5" x="318.5" y="102.4844"/><text fill="#000000" filter="url(#b165nzpq0trxiv0)" font-family="sans-serif" font-size="14" font-weight="bold" lengthAdjust="spacing" textLength="383" x="325.5" y="108.9707">calypsonet-terminal-calypso-crypto-legacysam-java-api</text><rect fill="#000000" height="3.5" style="stroke:#000000;stroke-width:0.0;" width="3.5" x="318.5" y="121.1055"/><text fill="#000000" filter="url(#b165nzpq0trxiv1)" font-family="sans-serif" font-size="14" font-weight="bold" lengthAdjust="spacing" textLength="229" x="325.5" y="127.5918">keyple-service-resource-java-lib</text><!--MD5=[d69a78b92018503d3be26d6e6dea574e]
cluster legacysam--><g id="cluster_legacysam"><path d="M8.5,155.1191 L355.5,155.1191 A3.75,3.75 0 0 1 358,157.6191 L365,179.7402 L1022.5,179.7402 A2.5,2.5 0 0 1 1025,182.2402 L1025,399.6191 A2.5,2.5 0 0 1 1022.5,402.1191 L8.5,402.1191 A2.5,2.5 0 0 1 6,399.6191 L6,157.6191 A2.5,2.5 0 0 1 8.5,155.1191 " fill="#F8F9F9" style="stroke:#000000;stroke-width:1.5;"/><line style="stroke:#000000;stroke-width:1.5;" x1="6" x2="365" y1="179.7402" y2="179.7402"/><text fill="#000000" font-family="sans-serif" font-size="14" font-weight="bold" lengthAdjust="spacing" textLength="346" x="10" y="172.2266">org.eclipse.keyple.card.calypso.crypto.legacysam</text></g><!--MD5=[2edf1f834e453d791ccff8d50e1a85dd]
class LegacySamSelectionFactoryProvider--><g id="elem_LegacySamSelectionFactoryProvider"><rect codeLine="61" fill="#FEFECE" height="66.6211" id="LegacySamSelectionFactoryProvider" rx="2.5" ry="2.5" style="stroke:#D4AC0D;stroke-width:2.0;" width="310" x="40" y="192.1191"/><ellipse cx="55" cy="208.1191" fill="#ADD1B2" rx="11" ry="11" style="stroke:#181818;stroke-width:1.0;"/><path d="M57.7656,203.9941 Q57.9219,203.7754 58.1094,203.666 Q58.2969,203.5566 58.5156,203.5566 Q58.8906,203.5566 59.125,203.8223 Q59.3594,204.0723 59.3594,204.6816 L59.3594,206.1348 Q59.3594,206.7441 59.125,207.0098 Q58.8906,207.2754 58.5156,207.2754 Q58.1719,207.2754 57.9688,207.0723 Q57.7656,206.8848 57.6563,206.3691 Q57.6094,206.0098 57.4219,205.8223 Q57.0938,205.4473 56.4844,205.2285 Q55.875,205.0098 55.25,205.0098 Q54.4844,205.0098 53.8438,205.3379 Q53.2188,205.666 52.7188,206.416 Q52.2344,207.166 52.2344,208.1973 L52.2344,209.291 Q52.2344,210.5254 53.125,211.3535 Q54.0156,212.166 55.6094,212.166 Q56.5469,212.166 57.2031,211.916 Q57.5938,211.7598 58.0156,211.3223 Q58.2813,211.0566 58.4219,210.9785 Q58.5781,210.9004 58.7813,210.9004 Q59.1094,210.9004 59.3594,211.166 Q59.625,211.416 59.625,211.7598 Q59.625,212.1035 59.2813,212.5098 Q58.7813,213.0879 57.9844,213.416 Q56.9063,213.8691 55.6094,213.8691 Q54.0938,213.8691 52.8906,213.2441 Q51.9063,212.7441 51.2188,211.6816 Q50.5313,210.6035 50.5313,209.3223 L50.5313,208.166 Q50.5313,206.8379 51.1406,205.6973 Q51.7656,204.541 52.8594,203.9316 Q53.9531,203.3066 55.1875,203.3066 Q55.9219,203.3066 56.5625,203.4785 Q57.2188,203.6348 57.7656,203.9941 Z " fill="#000000"/><ellipse cx="74" cy="207.6191" fill="#84BE84" rx="3" ry="3" style="stroke:#038048;stroke-width:1.0;"/><text fill="#000000" font-family="sans-serif" font-size="14" font-weight="bold" lengthAdjust="spacing" textLength="30" x="80" y="213.916">final</text><text fill="#000000" font-family="sans-serif" font-size="14" lengthAdjust="spacing" textLength="233" x="114" y="213.916">LegacySamSelectionFactoryProvider</text><line style="stroke:#D4AC0D;stroke-width:2.0;" x1="41" x2="349" y1="224.1191" y2="224.1191"/><line style="stroke:#D4AC0D;stroke-width:2.0;" x1="41" x2="349" y1="232.1191" y2="232.1191"/><ellipse cx="51" cy="246.9297" fill="#84BE84" rx="3" ry="3" style="stroke:#038048;stroke-width:1.0;"/><text fill="#000000" filter="url(#b165nzpq0trxiv0)" font-family="sans-serif" font-size="14" lengthAdjust="spacing" text-decoration="underline" textLength="180" x="60" y="251.2266">LegacySamSelectionFactory</text><text fill="#000000" font-family="sans-serif" font-size="14" lengthAdjust="spacing" text-decoration="underline" textLength="82" x="244" y="251.2266">getFactory ()</text></g><!--MD5=[68c93bcf4959ececb310e06977ae29cf]
class LegacySamTransactionManagerFactoryProvider--><g id="elem_LegacySamTransactionManagerFactoryProvider"><rect codeLine="64" fill="#FEFECE" height="66.6211" id="LegacySamTransactionManagerFactoryProvider" rx="2.5" ry="2.5" style="stroke:#D4AC0D;stroke-width:2.0;" width="383" x="385.5" y="192.1191"/><ellipse cx="400.5" cy="208.1191" fill="#ADD1B2" rx="11" ry="11" style="stroke:#181818;stroke-width:1.0;"/><path d="M403.2656,203.9941 Q403.4219,203.7754 403.6094,203.666 Q403.7969,203.5566 404.0156,203.5566 Q404.3906,203.5566 404.625,203.8223 Q404.8594,204.0723 404.8594,204.6816 L404.8594,206.1348 Q404.8594,206.7441 404.625,207.0098 Q404.3906,207.2754 404.0156,207.2754 Q403.6719,207.2754 403.4688,207.0723 Q403.2656,206.8848 403.1563,206.3691 Q403.1094,206.0098 402.9219,205.8223 Q402.5938,205.4473 401.9844,205.2285 Q401.375,205.0098 400.75,205.0098 Q399.9844,205.0098 399.3438,205.3379 Q398.7188,205.666 398.2188,206.416 Q397.7344,207.166 397.7344,208.1973 L397.7344,209.291 Q397.7344,210.5254 398.625,211.3535 Q399.5156,212.166 401.1094,212.166 Q402.0469,212.166 402.7031,211.916 Q403.0938,211.7598 403.5156,211.3223 Q403.7813,211.0566 403.9219,210.9785 Q404.0781,210.9004 404.2813,210.9004 Q404.6094,210.9004 404.8594,211.166 Q405.125,211.416 405.125,211.7598 Q405.125,212.1035 404.7813,212.5098 Q404.2813,213.0879 403.4844,213.416 Q402.4063,213.8691 401.1094,213.8691 Q399.5938,213.8691 398.3906,213.2441 Q397.4063,212.7441 396.7188,211.6816 Q396.0313,210.6035 396.0313,209.3223 L396.0313,208.166 Q396.0313,206.8379 396.6406,205.6973 Q397.2656,204.541 398.3594,203.9316 Q399.4531,203.3066 400.6875,203.3066 Q401.4219,203.3066 402.0625,203.4785 Q402.7188,203.6348 403.2656,203.9941 Z " fill="#000000"/><ellipse cx="419.5" cy="207.6191" fill="#84BE84" rx="3" ry="3" style="stroke:#038048;stroke-width:1.0;"/><text fill="#000000" font-family="sans-serif" font-size="14" font-weight="bold" lengthAdjust="spacing" textLength="30" x="425.5" y="213.916">final</text><text fill="#000000" font-family="sans-serif" font-size="14" lengthAdjust="spacing" textLength="306" x="459.5" y="213.916">LegacySamTransactionManagerFactoryProvider</text><line style="stroke:#D4AC0D;stroke-width:2.0;" x1="386.5" x2="767.5" y1="224.1191" y2="224.1191"/><line style="stroke:#D4AC0D;stroke-width:2.0;" x1="386.5" x2="767.5" y1="232.1191" y2="232.1191"/><ellipse cx="396.5" cy="246.9297" fill="#84BE84" rx="3" ry="3" style="stroke:#038048;stroke-width:1.0;"/><text fill="#000000" filter="url(#b165nzpq0trxiv0)" font-family="sans-serif" font-size="14" lengthAdjust="spacing" text-decoration="underline" textLength="253" x="405.5" y="251.2266">LegacySamTransactionManagerFactory</text><text fill="#000000" font-family="sans-serif" font-size="14" lengthAdjust="spacing" text-decoration="underline" textLength="82" x="662.5" y="251.2266">getFactory ()</text></g><!--MD5=[2853e8f395a793ffd74b34085c561a56]
class LegacySamCommandDataFactoryProvider--><g id="elem_LegacySamCommandDataFactoryProvider"><rect codeLine="67" fill="#FEFECE" height="66.6211" id="LegacySamCommandDataFactoryProvider" rx="2.5" ry="2.5" style="stroke:#D4AC0D;stroke-width:2.0;" width="346" x="22" y="319.1191"/><ellipse cx="37" cy="335.1191" fill="#ADD1B2" rx="11" ry="11" style="stroke:#181818;stroke-width:1.0;"/><path d="M39.7656,330.9941 Q39.9219,330.7754 40.1094,330.666 Q40.2969,330.5566 40.5156,330.5566 Q40.8906,330.5566 41.125,330.8223 Q41.3594,331.0723 41.3594,331.6816 L41.3594,333.1348 Q41.3594,333.7441 41.125,334.0098 Q40.8906,334.2754 40.5156,334.2754 Q40.1719,334.2754 39.9688,334.0723 Q39.7656,333.8848 39.6563,333.3691 Q39.6094,333.0098 39.4219,332.8223 Q39.0938,332.4473 38.4844,332.2285 Q37.875,332.0098 37.25,332.0098 Q36.4844,332.0098 35.8438,332.3379 Q35.2188,332.666 34.7188,333.416 Q34.2344,334.166 34.2344,335.1973 L34.2344,336.291 Q34.2344,337.5254 35.125,338.3535 Q36.0156,339.166 37.6094,339.166 Q38.5469,339.166 39.2031,338.916 Q39.5938,338.7598 40.0156,338.3223 Q40.2813,338.0566 40.4219,337.9785 Q40.5781,337.9004 40.7813,337.9004 Q41.1094,337.9004 41.3594,338.166 Q41.625,338.416 41.625,338.7598 Q41.625,339.1035 41.2813,339.5098 Q40.7813,340.0879 39.9844,340.416 Q38.9063,340.8691 37.6094,340.8691 Q36.0938,340.8691 34.8906,340.2441 Q33.9063,339.7441 33.2188,338.6816 Q32.5313,337.6035 32.5313,336.3223 L32.5313,335.166 Q32.5313,333.8379 33.1406,332.6973 Q33.7656,331.541 34.8594,330.9316 Q35.9531,330.3066 37.1875,330.3066 Q37.9219,330.3066 38.5625,330.4785 Q39.2188,330.6348 39.7656,330.9941 Z " fill="#000000"/><ellipse cx="56" cy="334.6191" fill="#84BE84" rx="3" ry="3" style="stroke:#038048;stroke-width:1.0;"/><text fill="#000000" font-family="sans-serif" font-size="14" font-weight="bold" lengthAdjust="spacing" textLength="30" x="62" y="340.916">final</text><text fill="#000000" font-family="sans-serif" font-size="14" lengthAdjust="spacing" textLength="269" x="96" y="340.916">LegacySamCommandDataFactoryProvider</text><line style="stroke:#D4AC0D;stroke-width:2.0;" x1="23" x2="367" y1="351.1191" y2="351.1191"/><line style="stroke:#D4AC0D;stroke-width:2.0;" x1="23" x2="367" y1="359.1191" y2="359.1191"/><ellipse cx="33" cy="373.9297" fill="#84BE84" rx="3" ry="3" style="stroke:#038048;stroke-width:1.0;"/><text fill="#000000" filter="url(#b165nzpq0trxiv0)" font-family="sans-serif" font-size="14" lengthAdjust="spacing" text-decoration="underline" textLength="216" x="42" y="378.2266">LegacySamCommandDataFactory</text><text fill="#000000" font-family="sans-serif" font-size="14" lengthAdjust="spacing" text-decoration="underline" textLength="82" x="262" y="378.2266">getFactory ()</text></g><!--MD5=[4587191f1962ae386c0510ec15d73052]
class LegacySamResourceProfileExtensionProvider--><g id="elem_LegacySamResourceProfileExtensionProvider"><rect codeLine="70" fill="#FEFECE" height="66.6211" id="LegacySamResourceProfileExtensionProvider" rx="2.5" ry="2.5" style="stroke:#D4AC0D;stroke-width:2.0;" width="606" x="403" y="319.1191"/><ellipse cx="534.75" cy="335.1191" fill="#ADD1B2" rx="11" ry="11" style="stroke:#181818;stroke-width:1.0;"/><path d="M537.5156,330.9941 Q537.6719,330.7754 537.8594,330.666 Q538.0469,330.5566 538.2656,330.5566 Q538.6406,330.5566 538.875,330.8223 Q539.1094,331.0723 539.1094,331.6816 L539.1094,333.1348 Q539.1094,333.7441 538.875,334.0098 Q538.6406,334.2754 538.2656,334.2754 Q537.9219,334.2754 537.7188,334.0723 Q537.5156,333.8848 537.4063,333.3691 Q537.3594,333.0098 537.1719,332.8223 Q536.8438,332.4473 536.2344,332.2285 Q535.625,332.0098 535,332.0098 Q534.2344,332.0098 533.5938,332.3379 Q532.9688,332.666 532.4688,333.416 Q531.9844,334.166 531.9844,335.1973 L531.9844,336.291 Q531.9844,337.5254 532.875,338.3535 Q533.7656,339.166 535.3594,339.166 Q536.2969,339.166 536.9531,338.916 Q537.3438,338.7598 537.7656,338.3223 Q538.0313,338.0566 538.1719,337.9785 Q538.3281,337.9004 538.5313,337.9004 Q538.8594,337.9004 539.1094,338.166 Q539.375,338.416 539.375,338.7598 Q539.375,339.1035 539.0313,339.5098 Q538.5313,340.0879 537.7344,340.416 Q536.6563,340.8691 535.3594,340.8691 Q533.8438,340.8691 532.6406,340.2441 Q531.6563,339.7441 530.9688,338.6816 Q530.2813,337.6035 530.2813,336.3223 L530.2813,335.166 Q530.2813,333.8379 530.8906,332.6973 Q531.5156,331.541 532.6094,330.9316 Q533.7031,330.3066 534.9375,330.3066 Q535.6719,330.3066 536.3125,330.4785 Q536.9688,330.6348 537.5156,330.9941 Z " fill="#000000"/><ellipse cx="560.25" cy="334.6191" fill="#84BE84" rx="3" ry="3" style="stroke:#038048;stroke-width:1.0;"/><text fill="#000000" font-family="sans-serif" font-size="14" font-weight="bold" lengthAdjust="spacing" textLength="30" x="566.25" y="340.916">final</text><text fill="#000000" font-family="sans-serif" font-size="14" lengthAdjust="spacing" textLength="289" x="600.25" y="340.916">LegacySamResourceProfileExtensionProvider</text><line style="stroke:#D4AC0D;stroke-width:2.0;" x1="404" x2="1008" y1="351.1191" y2="351.1191"/><line style="stroke:#D4AC0D;stroke-width:2.0;" x1="404" x2="1008" y1="359.1191" y2="359.1191"/><ellipse cx="414" cy="373.9297" fill="#84BE84" rx="3" ry="3" style="stroke:#038048;stroke-width:1.0;"/><text fill="#000000" filter="url(#b165nzpq0trxiv1)" font-family="sans-serif" font-size="14" lengthAdjust="spacing" text-decoration="underline" textLength="193" x="423" y="378.2266">CardResourceProfileExtension</text><text fill="#000000" font-family="sans-serif" font-size="14" lengthAdjust="spacing" text-decoration="underline" textLength="158" x="620" y="378.2266">getSamProfileExtension (</text><text fill="#000000" filter="url(#b165nzpq0trxiv0)" font-family="sans-serif" font-size="14" lengthAdjust="spacing" text-decoration="underline" textLength="132" x="778" y="378.2266">LegacySamSelection</text><text fill="#000000" font-family="sans-serif" font-size="14" lengthAdjust="spacing" text-decoration="underline" textLength="89" x="914" y="378.2266">samSelection)</text></g><!--MD5=[fccc6fbd26f3fba1e3389b9375010c9d]
@startuml
title
    Keyple - keyple-card-calypso-crypto-legacysam-java-lib - 0.1.+ (2022-12-12)
end title

' == THEME ==

'Couleurs issues de : https://htmlcolorcodes.com/fr/tableau-de-couleur/tableau-de-couleur-design-plat/
!define C_GREY1 F8F9F9
!define C_GREY2 F2F3F4
!define C_GREY3 E5E7E9
!define C_GREY4 D7DBDD
!define C_GREY5 CACFD2
!define C_GREY6 BDC3C7
!define C_LINK 3498DB
!define C_USE 27AE60

' - - Styles that don't work with new version of plantuml - -
skinparam stereotypeABorderColor #A9DCDF
skinparam stereotypeIBorderColor #B4A7E5
skinparam stereotypeCBorderColor #ADD1B2
skinparam stereotypeEBorderColor #EB93DF
' - - END - -

skinparam ClassBorderThickness 2
skinparam ArrowThickness 2

' Yellow
skinparam ClassBackgroundColor #FEFECE
skinparam ClassBorderColor #D4AC0D
' Red
skinparam ClassBackgroundColor<<red>> #FDEDEC
skinparam ClassBorderColor<<red>> #E74C3C
hide <<red>> stereotype
' Purple
skinparam ClassBackgroundColor<<purple>> #F4ECF7
skinparam ClassBorderColor<<purple>> #8E44AD
hide <<purple>> stereotype
' blue
skinparam ClassBackgroundColor<<blue>> #EBF5FB
skinparam ClassBorderColor<<blue>> #3498DB
hide <<blue>> stereotype
' Green
skinparam ClassBackgroundColor<<green>> #E9F7EF
skinparam ClassBorderColor<<green>> #27AE60
hide <<green>> stereotype
' Grey
skinparam ClassBackgroundColor<<grey>> #EAECEE
skinparam ClassBorderColor<<grey>> #2C3E50
hide <<grey>> stereotype

' == CONTENT ==

legend top
    __Colors legend__ :
    * __External API references__ :
    ** <back:lightgreen>**calypsonet-terminal-calypso-crypto-legacysam-java-api**</back>
    ** <back:orange>**keyple-service-resource-java-lib**</back>
end legend

package "org.eclipse.keyple.card.calypso.crypto.legacysam" as legacysam {
    +class "**final** LegacySamSelectionFactoryProvider" as LegacySamSelectionFactoryProvider {
        +{static} <back:lightgreen>LegacySamSelectionFactory</back> getFactory ()
    }
    +class "**final** LegacySamTransactionManagerFactoryProvider" as LegacySamTransactionManagerFactoryProvider {
        +{static} <back:lightgreen>LegacySamTransactionManagerFactory</back> getFactory ()
    }
    +class "**final** LegacySamCommandDataFactoryProvider" as LegacySamCommandDataFactoryProvider {
        +{static} <back:lightgreen>LegacySamCommandDataFactory</back> getFactory ()
    }
    +class "**final** LegacySamResourceProfileExtensionProvider" as LegacySamResourceProfileExtensionProvider {
        +{static} <back:orange>CardResourceProfileExtension</back> getSamProfileExtension (<back:lightgreen>LegacySamSelection</back> samSelection)
    }
}

' Associations

' == LAYOUT ==

' == STYLE ==

package legacysam #C_GREY1 {}

@enduml

@startuml
title
    Keyple - keyple-card-calypso-crypto-legacysam-java-lib - 0.1.+ (2022-12-12)
end title



skinparam stereotypeABorderColor #A9DCDF
skinparam stereotypeIBorderColor #B4A7E5
skinparam stereotypeCBorderColor #ADD1B2
skinparam stereotypeEBorderColor #EB93DF

skinparam ClassBorderThickness 2
skinparam ArrowThickness 2

skinparam ClassBackgroundColor #FEFECE
skinparam ClassBorderColor #D4AC0D
skinparam ClassBackgroundColor<<red>> #FDEDEC
skinparam ClassBorderColor<<red>> #E74C3C
hide <<red>> stereotype
skinparam ClassBackgroundColor<<purple>> #F4ECF7
skinparam ClassBorderColor<<purple>> #8E44AD
hide <<purple>> stereotype
skinparam ClassBackgroundColor<<blue>> #EBF5FB
skinparam ClassBorderColor<<blue>> #3498DB
hide <<blue>> stereotype
skinparam ClassBackgroundColor<<green>> #E9F7EF
skinparam ClassBorderColor<<green>> #27AE60
hide <<green>> stereotype
skinparam ClassBackgroundColor<<grey>> #EAECEE
skinparam ClassBorderColor<<grey>> #2C3E50
hide <<grey>> stereotype


legend top
    __Colors legend__ :
    * __External API references__ :
    ** <back:lightgreen>**calypsonet-terminal-calypso-crypto-legacysam-java-api**</back>
    ** <back:orange>**keyple-service-resource-java-lib**</back>
end legend

package "org.eclipse.keyple.card.calypso.crypto.legacysam" as legacysam {
    +class "**final** LegacySamSelectionFactoryProvider" as LegacySamSelectionFactoryProvider {
        +{static} <back:lightgreen>LegacySamSelectionFactory</back> getFactory ()
    }
    +class "**final** LegacySamTransactionManagerFactoryProvider" as LegacySamTransactionManagerFactoryProvider {
        +{static} <back:lightgreen>LegacySamTransactionManagerFactory</back> getFactory ()
    }
    +class "**final** LegacySamCommandDataFactoryProvider" as LegacySamCommandDataFactoryProvider {
        +{static} <back:lightgreen>LegacySamCommandDataFactory</back> getFactory ()
    }
    +class "**final** LegacySamResourceProfileExtensionProvider" as LegacySamResourceProfileExtensionProvider {
        +{static} <back:orange>CardResourceProfileExtension</back> getSamProfileExtension (<back:lightgreen>LegacySamSelection</back> samSelection)
    }
}




package legacysam #F8F9F9 {}

@enduml

PlantUML version 1.2022.13(Sat Nov 19 14:22:17 CET 2022)
(GPL source distribution)
Java Runtime: OpenJDK Runtime Environment
JVM: OpenJDK 64-Bit Server VM
Default Encoding: Cp1252
Language: fr
Country: FR
--></g></svg>